<svg viewBox="0 0 240 240" width="240" height="240" xmlns="http://www.w3.org/2000/svg" font-family="Inter, system-ui, -apple-system, sans-serif">
  <defs>
    <linearGradient id="logo" x1="0" y1="0" x2="1" y2="1"><stop offset="0" stop-color="#8b76f7"/><stop offset="1" stop-color="#5d44e0"/></linearGradient>
    <pattern id="grid" width="22" height="22" patternUnits="userSpaceOnUse"><path d="M22 0H0V22" fill="none" stroke="#ffffff" stroke-opacity="0.04"/></pattern>
    <radialGradient id="bg" cx="50%" cy="16%" r="90%"><stop offset="0" stop-color="#211a45"/><stop offset="50%" stop-color="#100d1e"/><stop offset="100%" stop-color="#09090b"/></radialGradient>
    <filter id="glow" x="-50%" y="-50%" width="200%" height="200%"><feGaussianBlur stdDeviation="16"/></filter>
  </defs>
  <rect width="240" height="240" fill="url(#bg)"/>
  <ellipse cx="120" cy="20" rx="120" ry="66" fill="#7c63f5" fill-opacity="0.35" filter="url(#glow)"/>
  <rect width="240" height="240" fill="url(#grid)"/>
  <rect x="20" y="22" width="200" height="196" rx="12" fill="#101013" stroke="#2a2a30"/>
  <g transform="translate(32,32) scale(0.357)">
    <rect width="56" height="56" rx="14" fill="url(#logo)"/>
    <rect x="13" y="13" width="14" height="14" rx="4" fill="#fff"/><rect x="29" y="13" width="14" height="14" rx="4" fill="#fff" opacity="0.68"/><rect x="13" y="29" width="14" height="14" rx="4" fill="#fff" opacity="0.45"/><rect x="29" y="29" width="14" height="14" rx="4" fill="#fff" opacity="0.26"/>
  </g>
  <text x="58" y="46" fill="#f4f4f5" font-size="13" font-weight="600">BricksMate</text>
  <line x1="32" y1="62" x2="208" y2="62" stroke="#222228"/>
  <g font-size="10" fill="#cdcdd3">
    <g transform="translate(0,78)"><text x="34" y="0">BEM Generator</text><g transform="translate(180,-9)"><rect width="26" height="15" rx="7.5" fill="#7c63f5"/><circle cx="18.5" cy="7.5" r="5.5" fill="#fff"/></g></g>
    <g transform="translate(0,101)"><text x="34" y="0">Auto-select Class</text><g transform="translate(180,-9)"><rect width="26" height="15" rx="7.5" fill="#7c63f5"/><circle cx="18.5" cy="7.5" r="5.5" fill="#fff"/></g></g>
    <g transform="translate(0,124)"><text x="34" y="0">Style Indicator</text><g transform="translate(180,-9)"><rect width="26" height="15" rx="7.5" fill="#7c63f5"/><circle cx="18.5" cy="7.5" r="5.5" fill="#fff"/></g></g>
    <g transform="translate(0,147)"><text x="34" y="0">Sidebar Shortcuts</text><g transform="translate(180,-9)"><rect width="26" height="15" rx="7.5" fill="#7c63f5"/><circle cx="18.5" cy="7.5" r="5.5" fill="#fff"/></g></g>
    <g transform="translate(0,170)"><text x="34" y="0">CSS Recipes</text><g transform="translate(180,-9)"><rect width="26" height="15" rx="7.5" fill="#7c63f5"/><circle cx="18.5" cy="7.5" r="5.5" fill="#fff"/></g></g>
    <g transform="translate(0,193)"><text x="34" y="0">HTML Tags</text><g transform="translate(180,-9)"><rect width="26" height="15" rx="7.5" fill="#7c63f5"/><circle cx="18.5" cy="7.5" r="5.5" fill="#fff"/></g></g>
  </g>
</svg>
